<svg width="295" height="81" viewBox="0 0 295 81" fill="none" xmlns="http://www.w3.org/2000/svg">
<rect x="0.5" y="0.5" width="294" height="80" rx="9.5" stroke="white"/>
<path d="M31.5563 17.7534C31.4595 17.6452 27.973 17.7961 24.939 21.0891C21.905 24.3792 22.3718 28.1533 22.4401 28.25C22.5084 28.3468 26.7662 28.4976 29.4843 24.6696C32.2024 20.8415 31.6531 17.8644 31.5563 17.7534ZM40.9885 51.1474C40.8519 50.8742 34.3712 47.6352 34.9746 41.4078C35.5779 35.1776 39.7419 33.4699 39.8073 33.2849C39.8728 33.0999 38.1082 31.0364 36.2383 29.9919C34.8653 29.2554 33.3458 28.8335 31.7897 28.7566C31.4823 28.7481 30.415 28.4863 28.2206 29.0868C26.7748 29.4824 23.5159 30.7632 22.6194 30.8144C21.72 30.8657 19.0446 29.3287 16.1671 28.9217C14.3257 28.566 12.3732 29.2946 10.9757 29.8553C9.58111 30.4131 6.92849 32.0013 5.07279 36.2221C3.21709 40.4401 4.18764 47.1229 4.8821 49.2006C5.57656 51.2755 6.66095 54.6766 8.50526 57.1585C10.1446 59.9591 12.3191 61.903 13.227 62.5633C14.135 63.2236 16.6965 63.662 18.4725 62.754C19.9013 61.8774 22.4799 61.3736 23.4988 61.4106C24.5149 61.4476 26.5186 61.849 28.5707 62.9447C30.1959 63.5054 31.7328 63.272 33.2726 62.6459C34.8123 62.0169 37.0409 59.6318 39.6423 54.7962C40.6299 52.5477 41.0796 51.3324 40.9885 51.1474Z" fill="white"/>
<path d="M31.5563 17.7534C31.4595 17.6452 27.973 17.7961 24.939 21.0891C21.905 24.3792 22.3718 28.1533 22.4401 28.25C22.5084 28.3468 26.7662 28.4976 29.4843 24.6696C32.2024 20.8415 31.6531 17.8644 31.5563 17.7534ZM40.9885 51.1474C40.8519 50.8742 34.3712 47.6352 34.9746 41.4078C35.5779 35.1776 39.7419 33.4699 39.8073 33.2849C39.8728 33.0999 38.1082 31.0364 36.2383 29.9919C34.8653 29.2554 33.3458 28.8335 31.7897 28.7566C31.4823 28.7481 30.415 28.4863 28.2206 29.0868C26.7748 29.4824 23.5159 30.7632 22.6194 30.8144C21.72 30.8657 19.0446 29.3287 16.1671 28.9217C14.3257 28.566 12.3732 29.2946 10.9757 29.8553C9.58111 30.4131 6.92849 32.0013 5.07279 36.2221C3.21709 40.4401 4.18764 47.1229 4.8821 49.2006C5.57656 51.2755 6.66095 54.6766 8.50526 57.1585C10.1446 59.9591 12.3191 61.903 13.227 62.5633C14.135 63.2236 16.6965 63.662 18.4725 62.754C19.9013 61.8774 22.4799 61.3736 23.4988 61.4106C24.5149 61.4476 26.5186 61.849 28.5707 62.9447C30.1959 63.5054 31.7328 63.272 33.2726 62.6459C34.8123 62.0169 37.0409 59.6318 39.6423 54.7962C40.6299 52.5477 41.0796 51.3324 40.9885 51.1474Z" fill="white"/>
<path d="M70.3875 17.7275C70.3875 19.777 69.9933 21.4904 69.2051 22.8678C68.4251 24.2369 67.2925 25.27 65.8072 25.967C64.322 26.6557 62.5339 27 60.4429 27H55.2901V8.80353H61.003C62.9114 8.80353 64.5668 9.14372 65.969 9.82412C67.3713 10.4962 68.4583 11.4961 69.23 12.8237C70.0016 14.143 70.3875 15.7776 70.3875 17.7275ZM66.3798 17.8271C66.3798 16.4829 66.1806 15.3793 65.7823 14.5164C65.3924 13.6451 64.8115 13.0021 64.0399 12.5872C63.2765 12.1723 62.3306 11.9649 61.2021 11.9649H59.1485V23.8138H60.8038C62.6874 23.8138 64.0855 23.3117 64.9982 22.3077C65.9192 21.3037 66.3798 19.8102 66.3798 17.8271ZM86.5054 20.0176C86.5054 21.1793 86.3478 22.2082 86.0325 23.1043C85.7254 24.0004 85.2732 24.7597 84.6758 25.382C84.0867 25.996 83.3731 26.4607 82.535 26.776C81.7053 27.0913 80.7677 27.2489 79.7222 27.2489C78.7431 27.2489 77.8428 27.0913 77.0213 26.776C76.2082 26.4607 75.4987 25.996 74.893 25.382C74.2956 24.7597 73.8309 24.0004 73.499 23.1043C73.1754 22.2082 73.0136 21.1793 73.0136 20.0176C73.0136 18.4743 73.2875 17.1674 73.8351 16.0971C74.3827 15.0267 75.1627 14.2135 76.175 13.6576C77.1873 13.1016 78.3946 12.8237 79.7969 12.8237C81.0996 12.8237 82.2529 13.1016 83.2569 13.6576C84.2692 14.2135 85.0616 15.0267 85.6342 16.0971C86.215 17.1674 86.5054 18.4743 86.5054 20.0176ZM76.8844 20.0176C76.8844 20.9304 76.984 21.6979 77.1831 22.3202C77.3823 22.9425 77.6934 23.4113 78.1166 23.7266C78.5398 24.0419 79.0916 24.1996 79.772 24.1996C80.4441 24.1996 80.9876 24.0419 81.4024 23.7266C81.8256 23.4113 82.1326 22.9425 82.3235 22.3202C82.5226 21.6979 82.6222 20.9304 82.6222 20.0176C82.6222 19.0966 82.5226 18.3332 82.3235 17.7275C82.1326 17.1135 81.8256 16.653 81.4024 16.346C80.9793 16.039 80.4275 15.8855 79.7471 15.8855C78.7431 15.8855 78.0129 16.2298 77.5565 16.9185C77.1085 17.6072 76.8844 18.6402 76.8844 20.0176ZM101.08 27L100.01 22.1335C99.9515 21.8431 99.8561 21.4158 99.7234 20.8515C99.5906 20.279 99.4454 19.6691 99.2877 19.0219C99.1384 18.3664 98.9973 17.7607 98.8646 17.2048C98.7401 16.6488 98.6488 16.2423 98.5908 15.985H98.4787C98.4207 16.2423 98.3294 16.6488 98.2049 17.2048C98.0805 17.7607 97.9394 18.3664 97.7817 19.0219C97.6324 19.6774 97.4913 20.2956 97.3586 20.8764C97.2258 21.449 97.1262 21.8846 97.0599 22.1833L95.9397 27H91.8573L87.8994 13.085H91.6831L93.2886 19.246C93.3965 19.6774 93.5002 20.1919 93.5998 20.7893C93.6994 21.3784 93.7865 21.951 93.8612 22.5069C93.9441 23.0545 94.0064 23.4901 94.0479 23.8138H94.1474C94.164 23.5731 94.1972 23.2537 94.247 22.8554C94.3051 22.4571 94.3673 22.0464 94.4337 21.6232C94.5084 21.1917 94.5748 20.8059 94.6328 20.4657C94.6992 20.1172 94.749 19.8807 94.7822 19.7563L96.4998 13.085H100.682L102.312 19.7563C102.37 19.9969 102.445 20.3786 102.536 20.9013C102.636 21.4241 102.723 21.9634 102.798 22.5193C102.872 23.067 102.914 23.4984 102.922 23.8138H103.022C103.055 23.5316 103.113 23.1126 103.196 22.5567C103.279 22.0007 103.374 21.4199 103.482 20.8142C103.598 20.2002 103.714 19.6774 103.831 19.246L105.498 13.085H109.22L105.212 27H101.08ZM119.376 12.8237C120.861 12.8237 122.056 13.2303 122.961 14.0434C123.865 14.8483 124.317 16.1427 124.317 17.9267V27H120.521V18.8726C120.521 17.8769 120.339 17.1259 119.973 16.6198C119.617 16.1136 119.052 15.8606 118.281 15.8606C117.119 15.8606 116.327 16.2547 115.904 17.043C115.48 17.8312 115.269 18.968 115.269 20.4533V27H111.473V13.085H114.373L114.883 14.8649H115.095C115.393 14.3836 115.762 13.9936 116.202 13.6949C116.65 13.3962 117.144 13.1763 117.683 13.0353C118.231 12.8942 118.795 12.8237 119.376 12.8237ZM132.021 27H128.225V7.63357H132.021V27ZM148.662 20.0176C148.662 21.1793 148.505 22.2082 148.189 23.1043C147.882 24.0004 147.43 24.7597 146.833 25.382C146.243 25.996 145.53 26.4607 144.692 26.776C143.862 27.0913 142.924 27.2489 141.879 27.2489C140.9 27.2489 140 27.0913 139.178 26.776C138.365 26.4607 137.656 25.996 137.05 25.382C136.452 24.7597 135.988 24.0004 135.656 23.1043C135.332 22.2082 135.17 21.1793 135.17 20.0176C135.17 18.4743 135.444 17.1674 135.992 16.0971C136.539 15.0267 137.319 14.2135 138.332 13.6576C139.344 13.1016 140.551 12.8237 141.954 12.8237C143.256 12.8237 144.41 13.1016 145.414 13.6576C146.426 14.2135 147.218 15.0267 147.791 16.0971C148.372 17.1674 148.662 18.4743 148.662 20.0176ZM139.041 20.0176C139.041 20.9304 139.141 21.6979 139.34 22.3202C139.539 22.9425 139.85 23.4113 140.273 23.7266C140.697 24.0419 141.248 24.1996 141.929 24.1996C142.601 24.1996 143.144 24.0419 143.559 23.7266C143.982 23.4113 144.289 22.9425 144.48 22.3202C144.679 21.6979 144.779 20.9304 144.779 20.0176C144.779 19.0966 144.679 18.3332 144.48 17.7275C144.289 17.1135 143.982 16.653 143.559 16.346C143.136 16.039 142.584 15.8855 141.904 15.8855C140.9 15.8855 140.17 16.2298 139.713 16.9185C139.265 17.6072 139.041 18.6402 139.041 20.0176ZM157.499 12.7988C159.366 12.7988 160.797 13.2054 161.793 14.0185C162.789 14.8317 163.287 16.068 163.287 17.7275V27H160.636L159.901 25.1082H159.802C159.403 25.606 158.997 26.0126 158.582 26.3279C158.167 26.6432 157.69 26.8755 157.151 27.0249C156.611 27.1742 155.956 27.2489 155.184 27.2489C154.363 27.2489 153.624 27.0913 152.969 26.776C152.321 26.4607 151.811 25.9794 151.438 25.3322C151.064 24.6767 150.878 23.8469 150.878 22.8429C150.878 21.366 151.396 20.279 152.433 19.582C153.471 18.8767 155.026 18.4867 157.101 18.4121L159.515 18.3374V17.7275C159.515 16.9973 159.324 16.4621 158.943 16.1219C158.561 15.7817 158.03 15.6116 157.35 15.6116C156.678 15.6116 156.018 15.7071 155.371 15.8979C154.724 16.0888 154.076 16.3294 153.429 16.6198L152.172 14.0559C152.911 13.6659 153.736 13.3589 154.649 13.1348C155.57 12.9108 156.52 12.7988 157.499 12.7988ZM159.515 20.5528L158.047 20.6026C156.819 20.6358 155.964 20.8557 155.483 21.2623C155.01 21.6688 154.773 22.204 154.773 22.8678C154.773 23.4487 154.943 23.8635 155.284 24.1125C155.624 24.3531 156.068 24.4734 156.615 24.4734C157.429 24.4734 158.113 24.2328 158.669 23.7515C159.233 23.2703 159.515 22.5857 159.515 21.6979V20.5528ZM171.613 27.2489C170.061 27.2489 168.796 26.6432 167.817 25.4318C166.846 24.212 166.361 22.4239 166.361 20.0674C166.361 17.686 166.855 15.8855 167.842 14.6657C168.829 13.4377 170.12 12.8237 171.713 12.8237C172.377 12.8237 172.961 12.9149 173.468 13.0975C173.974 13.28 174.409 13.5248 174.774 13.8318C175.148 14.1388 175.463 14.4832 175.72 14.8649H175.845C175.795 14.5993 175.733 14.2094 175.658 13.6949C175.592 13.1722 175.559 12.637 175.559 12.0893V7.63357H179.367V27H176.455L175.72 25.1953H175.559C175.318 25.577 175.015 25.9255 174.65 26.2408C174.293 26.5478 173.866 26.7926 173.368 26.9751C172.87 27.1577 172.285 27.2489 171.613 27.2489ZM172.945 24.2245C173.982 24.2245 174.712 23.9175 175.135 23.3035C175.567 22.6811 175.795 21.7477 175.82 20.503V20.0923C175.82 18.7398 175.613 17.7068 175.198 16.9932C174.783 16.2713 174.011 15.9104 172.883 15.9104C172.045 15.9104 171.389 16.2713 170.916 16.9932C170.443 17.7151 170.207 18.7564 170.207 20.1172C170.207 21.478 170.443 22.5027 170.916 23.1914C171.397 23.8801 172.074 24.2245 172.945 24.2245ZM202.604 20.0176C202.604 21.1793 202.447 22.2082 202.131 23.1043C201.824 24.0004 201.372 24.7597 200.775 25.382C200.186 25.996 199.472 26.4607 198.634 26.776C197.804 27.0913 196.867 27.2489 195.821 27.2489C194.842 27.2489 193.942 27.0913 193.12 26.776C192.307 26.4607 191.598 25.996 190.992 25.382C190.395 24.7597 189.93 24.0004 189.598 23.1043C189.274 22.2082 189.113 21.1793 189.113 20.0176C189.113 18.4743 189.386 17.1674 189.934 16.0971C190.482 15.0267 191.262 14.2135 192.274 13.6576C193.286 13.1016 194.494 12.8237 195.896 12.8237C197.199 12.8237 198.352 13.1016 199.356 13.6576C200.368 14.2135 201.161 15.0267 201.733 16.0971C202.314 17.1674 202.604 18.4743 202.604 20.0176ZM192.983 20.0176C192.983 20.9304 193.083 21.6979 193.282 22.3202C193.481 22.9425 193.792 23.4113 194.216 23.7266C194.639 24.0419 195.191 24.1996 195.871 24.1996C196.543 24.1996 197.087 24.0419 197.501 23.7266C197.925 23.4113 198.232 22.9425 198.422 22.3202C198.622 21.6979 198.721 20.9304 198.721 20.0176C198.721 19.0966 198.622 18.3332 198.422 17.7275C198.232 17.1135 197.925 16.653 197.501 16.346C197.078 16.039 196.526 15.8855 195.846 15.8855C194.842 15.8855 194.112 16.2298 193.656 16.9185C193.207 17.6072 192.983 18.6402 192.983 20.0176ZM213.644 12.8237C215.13 12.8237 216.324 13.2303 217.229 14.0434C218.133 14.8483 218.585 16.1427 218.585 17.9267V27H214.789V18.8726C214.789 17.8769 214.607 17.1259 214.242 16.6198C213.885 16.1136 213.321 15.8606 212.549 15.8606C211.387 15.8606 210.595 16.2547 210.172 17.043C209.749 17.8312 209.537 18.968 209.537 20.4533V27H205.741V13.085H208.641L209.151 14.8649H209.363C209.661 14.3836 210.031 13.9936 210.47 13.6949C210.919 13.3962 211.412 13.1763 211.952 13.0353C212.499 12.8942 213.063 12.8237 213.644 12.8237ZM234.977 24.2245C235.392 24.2245 235.794 24.183 236.184 24.1C236.583 24.017 236.977 23.9133 237.367 23.7889V26.6142C236.96 26.7967 236.454 26.9461 235.848 27.0622C235.251 27.1867 234.596 27.2489 233.882 27.2489C233.052 27.2489 232.305 27.1162 231.642 26.8506C230.986 26.5768 230.467 26.108 230.086 25.4442C229.712 24.7721 229.526 23.8386 229.526 22.6438V15.9352H227.709V14.3297L229.8 13.0602L230.895 10.1228H233.322V13.085H237.218V15.9352H233.322V22.6438C233.322 23.1748 233.471 23.5731 233.77 23.8386C234.077 24.0959 234.479 24.2245 234.977 24.2245ZM243.988 7.63357V11.579C243.988 12.2677 243.963 12.9232 243.914 13.5456C243.872 14.1679 243.839 14.6076 243.814 14.8649H244.013C244.312 14.3836 244.665 13.9936 245.071 13.6949C245.486 13.3962 245.942 13.1763 246.44 13.0353C246.938 12.8942 247.473 12.8237 248.046 12.8237C249.05 12.8237 249.925 13.0021 250.672 13.3589C251.419 13.7074 252 14.2591 252.414 15.0142C252.829 15.761 253.037 16.7318 253.037 17.9267V27H249.241V18.8726C249.241 17.8769 249.058 17.1259 248.693 16.6198C248.328 16.1136 247.764 15.8606 247 15.8606C246.237 15.8606 245.635 16.039 245.196 16.3958C244.756 16.7443 244.445 17.2629 244.262 17.9515C244.08 18.6319 243.988 19.4658 243.988 20.4533V27H240.192V7.63357H243.988ZM262.683 12.8237C263.969 12.8237 265.076 13.0726 266.006 13.5705C266.935 14.06 267.653 14.7736 268.159 15.7112C268.665 16.6488 268.918 17.7939 268.918 19.1464V20.9884H259.944C259.986 22.0588 260.305 22.901 260.903 23.515C261.509 24.1208 262.347 24.4236 263.417 24.4236C264.305 24.4236 265.118 24.3323 265.856 24.1498C266.595 23.9673 267.354 23.6934 268.134 23.3283V26.2657C267.445 26.6059 266.724 26.8548 265.968 27.0124C265.222 27.1701 264.313 27.2489 263.243 27.2489C261.849 27.2489 260.612 26.9917 259.534 26.4773C258.463 25.9628 257.621 25.1787 257.007 24.1249C256.401 23.0711 256.099 21.7435 256.099 20.1421C256.099 18.5158 256.372 17.1633 256.92 16.0846C257.476 14.9976 258.248 14.1845 259.235 13.6451C260.222 13.0975 261.372 12.8237 262.683 12.8237ZM262.708 15.5245C261.969 15.5245 261.355 15.761 260.865 16.234C260.384 16.7069 260.106 17.4495 260.032 18.4618H265.359C265.35 17.8976 265.247 17.3956 265.047 16.9558C264.857 16.5161 264.566 16.1676 264.176 15.9104C263.795 15.6531 263.305 15.5245 262.708 15.5245ZM70.1175 71L68.4359 65.4792H59.9803L58.2987 71H53L61.186 47.7113H67.1985L75.4162 71H70.1175ZM67.262 61.3545L65.5804 55.9607C65.4746 55.6011 65.3318 55.141 65.152 54.5805C64.9828 54.0094 64.8083 53.433 64.6285 52.8513C64.4593 52.259 64.3218 51.7461 64.216 51.3125C64.1103 51.7461 63.9622 52.2855 63.7718 52.9306C63.592 53.5652 63.4175 54.168 63.2483 54.7391C63.0791 55.3102 62.9575 55.7174 62.8834 55.9607L61.2177 61.3545H67.262ZM85.7597 47.8065C88.7528 47.8065 90.9367 48.4516 92.3116 49.7419C93.6865 51.0216 94.374 52.7878 94.374 55.0406C94.374 56.0559 94.2206 57.0289 93.9139 57.9596C93.6072 58.8797 93.1048 59.6994 92.4068 60.4185C91.7194 61.1377 90.7992 61.7088 89.6464 62.1319C88.4936 62.5444 87.0711 62.7506 85.379 62.7506H83.269V71H78.3511V47.8065H85.7597ZM85.5059 51.836H83.269V58.7211H84.8872C85.8073 58.7211 86.6058 58.5994 87.2827 58.3562C87.9595 58.1129 88.4831 57.7322 88.8532 57.214C89.2234 56.6957 89.4085 56.0294 89.4085 55.2151C89.4085 54.0728 89.0912 53.2267 88.4566 52.6768C87.822 52.1162 86.8385 51.836 85.5059 51.836ZM106.161 47.8065C109.154 47.8065 111.338 48.4516 112.713 49.7419C114.088 51.0216 114.775 52.7878 114.775 55.0406C114.775 56.0559 114.622 57.0289 114.315 57.9596C114.009 58.8797 113.506 59.6994 112.808 60.4185C112.121 61.1377 111.201 61.7088 110.048 62.1319C108.895 62.5444 107.473 62.7506 105.78 62.7506H103.67V71H98.7525V47.8065H106.161ZM105.907 51.836H103.67V58.7211H105.289C106.209 58.7211 107.007 58.5994 107.684 58.3562C108.361 58.1129 108.884 57.7322 109.255 57.214C109.625 56.6957 109.81 56.0294 109.81 55.2151C109.81 54.0728 109.493 53.2267 108.858 52.6768C108.223 52.1162 107.24 51.836 105.907 51.836ZM141.285 64.5591C141.285 65.934 140.951 67.1291 140.285 68.1444C139.619 69.1597 138.646 69.9424 137.366 70.4923C136.097 71.0423 134.553 71.3173 132.734 71.3173C131.93 71.3173 131.142 71.2644 130.37 71.1586C129.609 71.0529 128.873 70.8995 128.165 70.6986C127.467 70.4871 126.801 70.2279 126.166 69.9212V65.3523C127.266 65.8388 128.408 66.2777 129.593 66.6691C130.777 67.0604 131.951 67.256 133.115 67.256C133.918 67.256 134.563 67.1503 135.05 66.9387C135.547 66.7272 135.907 66.4364 136.129 66.0662C136.351 65.696 136.462 65.273 136.462 64.7971C136.462 64.2154 136.266 63.7183 135.875 63.3058C135.484 62.8934 134.944 62.5073 134.257 62.1477C133.58 61.7882 132.813 61.4021 131.956 60.9897C131.417 60.7358 130.83 60.4291 130.195 60.0695C129.561 59.6994 128.958 59.2499 128.387 58.7211C127.816 58.1923 127.345 57.5524 126.975 56.8015C126.615 56.04 126.436 55.1305 126.436 54.0728C126.436 52.6874 126.753 51.5028 127.388 50.5192C128.022 49.5357 128.926 48.7847 130.1 48.2665C131.285 47.7377 132.681 47.4733 134.288 47.4733C135.494 47.4733 136.642 47.6161 137.731 47.9016C138.831 48.1766 139.978 48.5785 141.174 49.1073L139.587 52.9306C138.519 52.497 137.562 52.1638 136.716 51.9312C135.87 51.6879 135.008 51.5663 134.13 51.5663C133.516 51.5663 132.993 51.6668 132.559 51.8677C132.126 52.0581 131.798 52.3331 131.576 52.6926C131.354 53.0417 131.243 53.4488 131.243 53.9142C131.243 54.4642 131.401 54.9295 131.718 55.3102C132.046 55.6804 132.533 56.04 133.178 56.389C133.834 56.738 134.648 57.1452 135.621 57.6106C136.806 58.1711 137.816 58.7581 138.651 59.3715C139.497 59.9743 140.148 60.6882 140.602 61.5132C141.057 62.3275 141.285 63.3429 141.285 64.5591ZM154.436 71H149.518V51.8994H143.22V47.8065H160.734V51.8994H154.436V71ZM185.356 59.3715C185.356 61.1589 185.133 62.7876 184.689 64.2577C184.245 65.7172 183.568 66.9758 182.659 68.0334C181.76 69.091 180.617 69.9054 179.232 70.4765C177.846 71.037 176.207 71.3173 174.314 71.3173C172.421 71.3173 170.782 71.037 169.396 70.4765C168.011 69.9054 166.863 69.091 165.954 68.0334C165.055 66.9758 164.383 65.7119 163.939 64.2418C163.495 62.7717 163.272 61.1377 163.272 59.3398C163.272 56.939 163.664 54.8502 164.446 53.0734C165.24 51.286 166.456 49.9005 168.095 48.917C169.735 47.9334 171.818 47.4416 174.346 47.4416C176.863 47.4416 178.93 47.9334 180.549 48.917C182.177 49.9005 183.383 51.286 184.166 53.0734C184.959 54.8608 185.356 56.9601 185.356 59.3715ZM168.428 59.3715C168.428 60.9897 168.629 62.3857 169.031 63.5597C169.444 64.723 170.084 65.622 170.951 66.2566C171.818 66.8806 172.939 67.1926 174.314 67.1926C175.71 67.1926 176.842 66.8806 177.709 66.2566C178.576 65.622 179.205 64.723 179.597 63.5597C179.999 62.3857 180.2 60.9897 180.2 59.3715C180.2 56.939 179.745 55.0247 178.835 53.6286C177.926 52.2326 176.429 51.5346 174.346 51.5346C172.96 51.5346 171.829 51.8518 170.951 52.4864C170.084 53.1104 169.444 54.0094 169.031 55.1833C168.629 56.3467 168.428 57.7428 168.428 59.3715ZM196.921 47.8065C199.025 47.8065 200.76 48.0603 202.124 48.5679C203.499 49.0756 204.52 49.8424 205.186 50.8683C205.852 51.8941 206.185 53.1897 206.185 54.755C206.185 55.8126 205.984 56.738 205.582 57.5312C205.181 58.3245 204.652 58.996 203.996 59.546C203.34 60.096 202.632 60.5455 201.87 60.8945L208.692 71H203.235L197.698 62.1002H195.08V71H190.162V47.8065H196.921ZM196.572 51.836H195.08V58.1024H196.667C198.295 58.1024 199.459 57.8327 200.157 57.2933C200.865 56.7433 201.22 55.9395 201.22 54.8819C201.22 53.782 200.839 52.9994 200.078 52.534C199.327 52.0687 198.158 51.836 196.572 51.836ZM224.969 71H211.611V47.8065H224.969V51.836H216.529V56.9284H224.382V60.9579H216.529V66.9387H224.969V71Z" fill="white"/>
</svg>
