<svg width="148" height="69" viewBox="0 0 148 69" fill="#000000" style="background-color:black" xmlns="http://www.w3.org/2000/svg">
<path d="M105.741 28H93.0206V25.324L97.5884 20.7065C98.5094 19.7606 99.2479 18.9723 99.8038 18.3417C100.368 17.7028 100.775 17.1219 101.024 16.5992C101.281 16.0765 101.409 15.5164 101.409 14.9189C101.409 14.1971 101.206 13.6577 100.8 13.3009C100.401 12.9358 99.8661 12.7533 99.194 12.7533C98.4887 12.7533 97.8041 12.9151 97.1403 13.2387C96.4765 13.5623 95.7837 14.0228 95.0618 14.6202L92.9708 12.1434C93.4936 11.6954 94.0453 11.2722 94.6262 10.8739C95.2153 10.4756 95.8957 10.1562 96.6674 9.91554C97.4473 9.66662 98.3808 9.54215 99.4678 9.54215C100.663 9.54215 101.687 9.75789 102.542 10.1894C103.405 10.6208 104.069 11.21 104.533 11.9567C104.998 12.6952 105.23 13.5333 105.23 14.4709C105.23 15.4749 105.031 16.3918 104.633 17.2215C104.235 18.0513 103.654 18.8727 102.891 19.6859C102.135 20.499 101.223 21.3993 100.152 22.3867L97.8124 24.5897V24.764H105.741V28ZM120.738 24.2288H118.548V28H114.789V24.2288H107.023V21.5528L115.001 9.80353H118.548V21.2417H120.738V24.2288ZM114.789 21.2417V18.155C114.789 17.8646 114.793 17.5202 114.802 17.1219C114.818 16.7237 114.835 16.3254 114.851 15.9271C114.868 15.5288 114.885 15.1762 114.901 14.8692C114.926 14.5539 114.943 14.334 114.951 14.2095H114.851C114.694 14.5497 114.528 14.8816 114.354 15.2052C114.179 15.5205 113.976 15.8524 113.744 16.2009L110.408 21.2417H114.789ZM131.579 9.80353L124.796 28H121.348L128.132 9.80353H131.579ZM134.529 28L141.362 13.0396H132.388V9.80353H145.444V12.2181L138.562 28H134.529Z" fill="#000000"/>
<path d="M97.4077 51.1275C97.4077 51.7407 97.2592 52.2737 96.962 52.7265C96.6648 53.1793 96.2309 53.5283 95.6602 53.7736C95.0941 54.0189 94.4055 54.1415 93.5942 54.1415C93.2357 54.1415 92.8843 54.1179 92.54 54.0708C92.2004 54.0236 91.8726 53.9552 91.5565 53.8656C91.2452 53.7712 90.9481 53.6557 90.6651 53.5189V51.4812C91.1556 51.6982 91.665 51.894 92.1933 52.0685C92.7216 52.243 93.2452 52.3303 93.764 52.3303C94.1225 52.3303 94.4102 52.2831 94.6272 52.1888C94.8489 52.0944 95.0092 51.9647 95.1083 51.7996C95.2073 51.6345 95.2569 51.4459 95.2569 51.2336C95.2569 50.9742 95.1696 50.7525 94.9951 50.5685C94.8206 50.3846 94.58 50.2124 94.2734 50.052C93.9715 49.8917 93.6296 49.7195 93.2475 49.5356C93.007 49.4223 92.7452 49.2856 92.4622 49.1252C92.1792 48.9601 91.9103 48.7596 91.6556 48.5238C91.4009 48.288 91.191 48.0026 91.0259 47.6677C90.8655 47.3281 90.7853 46.9224 90.7853 46.4508C90.7853 45.8329 90.9269 45.3046 91.2099 44.8659C91.4929 44.4273 91.8962 44.0924 92.4197 43.8612C92.948 43.6254 93.5706 43.5075 94.2876 43.5075C94.8253 43.5075 95.3371 43.5712 95.8229 43.6985C96.3134 43.8212 96.8252 44.0004 97.3582 44.2362L96.6507 45.9414C96.1743 45.748 95.7474 45.5994 95.3701 45.4956C94.9927 45.3871 94.6083 45.3329 94.2168 45.3329C93.9432 45.3329 93.7098 45.3777 93.5164 45.4673C93.323 45.5522 93.1768 45.6749 93.0777 45.8352C92.9787 45.9909 92.9291 46.1725 92.9291 46.38C92.9291 46.6253 92.9999 46.8328 93.1414 47.0026C93.2876 47.1677 93.5046 47.3281 93.7923 47.4837C94.0847 47.6394 94.4479 47.821 94.8819 48.0285C95.4102 48.2785 95.8606 48.5403 96.2332 48.8139C96.6106 49.0827 96.9007 49.4011 97.1035 49.769C97.3063 50.1322 97.4077 50.585 97.4077 51.1275ZM106.372 46.0899V54H104.716L104.426 52.9882H104.313C104.143 53.2571 103.931 53.4764 103.676 53.6462C103.422 53.816 103.141 53.941 102.834 54.0212C102.528 54.1014 102.209 54.1415 101.879 54.1415C101.313 54.1415 100.82 54.0425 100.401 53.8443C99.9807 53.6415 99.6529 53.3279 99.4171 52.9033C99.186 52.4788 99.0704 51.927 99.0704 51.2477V46.0899H101.228V50.71C101.228 51.276 101.33 51.7029 101.533 51.9906C101.735 52.2784 102.058 52.4222 102.502 52.4222C102.941 52.4222 103.285 52.3232 103.535 52.1251C103.785 51.9223 103.959 51.6275 104.058 51.2407C104.162 50.8492 104.214 50.3728 104.214 49.8115V46.0899H106.372ZM113.037 45.9414C113.928 45.9414 114.648 46.288 115.195 46.9814C115.747 47.6748 116.023 48.6912 116.023 50.0308C116.023 50.927 115.893 51.6817 115.633 52.2949C115.374 52.9033 115.016 53.3632 114.558 53.6745C114.1 53.9858 113.575 54.1415 112.98 54.1415C112.598 54.1415 112.27 54.0943 111.997 54C111.723 53.9009 111.49 53.776 111.296 53.625C111.103 53.4694 110.936 53.3043 110.794 53.1298H110.681C110.719 53.3184 110.747 53.5118 110.766 53.7099C110.785 53.908 110.794 54.1014 110.794 54.2901V57.481H108.636V46.0899H110.391L110.695 47.1158H110.794C110.936 46.9036 111.108 46.7078 111.31 46.5286C111.513 46.3494 111.756 46.2079 112.039 46.1041C112.327 45.9956 112.659 45.9414 113.037 45.9414ZM112.343 47.6677C111.966 47.6677 111.667 47.7455 111.445 47.9012C111.223 48.0568 111.06 48.2903 110.957 48.6016C110.858 48.9129 110.803 49.3068 110.794 49.7832V50.0167C110.794 50.5261 110.841 50.9577 110.936 51.3114C111.035 51.6652 111.197 51.934 111.424 52.118C111.655 52.302 111.971 52.3939 112.372 52.3939C112.702 52.3939 112.973 52.302 113.185 52.118C113.398 51.934 113.556 51.6652 113.659 51.3114C113.768 50.9529 113.822 50.5166 113.822 50.0025C113.822 49.229 113.702 48.6464 113.461 48.2549C113.221 47.8634 112.848 47.6677 112.343 47.6677ZM122.206 45.9414C123.098 45.9414 123.817 46.288 124.364 46.9814C124.916 47.6748 125.192 48.6912 125.192 50.0308C125.192 50.927 125.062 51.6817 124.803 52.2949C124.543 52.9033 124.185 53.3632 123.727 53.6745C123.27 53.9858 122.744 54.1415 122.15 54.1415C121.768 54.1415 121.44 54.0943 121.166 54C120.893 53.9009 120.659 53.776 120.466 53.625C120.272 53.4694 120.105 53.3043 119.963 53.1298H119.85C119.888 53.3184 119.916 53.5118 119.935 53.7099C119.954 53.908 119.963 54.1014 119.963 54.2901V57.481H117.806V46.0899H119.56L119.864 47.1158H119.963C120.105 46.9036 120.277 46.7078 120.48 46.5286C120.683 46.3494 120.926 46.2079 121.209 46.1041C121.496 45.9956 121.829 45.9414 122.206 45.9414ZM121.513 47.6677C121.136 47.6677 120.836 47.7455 120.614 47.9012C120.393 48.0568 120.23 48.2903 120.126 48.6016C120.027 48.9129 119.973 49.3068 119.963 49.7832V50.0167C119.963 50.5261 120.011 50.9577 120.105 51.3114C120.204 51.6652 120.367 51.934 120.593 52.118C120.824 52.302 121.14 52.3939 121.541 52.3939C121.871 52.3939 122.143 52.302 122.355 52.118C122.567 51.934 122.725 51.6652 122.829 51.3114C122.937 50.9529 122.992 50.5166 122.992 50.0025C122.992 49.229 122.871 48.6464 122.631 48.2549C122.39 47.8634 122.018 47.6677 121.513 47.6677ZM134.163 50.0308C134.163 50.6912 134.074 51.276 133.895 51.7855C133.72 52.2949 133.463 52.7265 133.123 53.0802C132.788 53.4293 132.383 53.6934 131.906 53.8726C131.435 54.0519 130.902 54.1415 130.307 54.1415C129.751 54.1415 129.239 54.0519 128.772 53.8726C128.31 53.6934 127.907 53.4293 127.562 53.0802C127.223 52.7265 126.958 52.2949 126.77 51.7855C126.586 51.276 126.494 50.6912 126.494 50.0308C126.494 49.1535 126.65 48.4106 126.961 47.8021C127.272 47.1937 127.716 46.7314 128.291 46.4154C128.866 46.0994 129.553 45.9414 130.35 45.9414C131.09 45.9414 131.746 46.0994 132.317 46.4154C132.892 46.7314 133.343 47.1937 133.668 47.8021C133.998 48.4106 134.163 49.1535 134.163 50.0308ZM128.694 50.0308C128.694 50.5497 128.751 50.986 128.864 51.3397C128.977 51.6935 129.154 51.96 129.395 52.1392C129.635 52.3185 129.949 52.4081 130.336 52.4081C130.718 52.4081 131.027 52.3185 131.263 52.1392C131.503 51.96 131.678 51.6935 131.786 51.3397C131.899 50.986 131.956 50.5497 131.956 50.0308C131.956 49.5073 131.899 49.0733 131.786 48.729C131.678 48.3799 131.503 48.1182 131.263 47.9436C131.022 47.7691 130.708 47.6819 130.322 47.6819C129.751 47.6819 129.336 47.8776 129.076 48.2691C128.822 48.6606 128.694 49.2478 128.694 50.0308ZM140.361 45.9414C140.47 45.9414 140.595 45.9484 140.736 45.9626C140.882 45.972 141 45.9862 141.09 46.005L140.927 48.0285C140.857 48.005 140.755 47.9884 140.623 47.979C140.496 47.9649 140.385 47.9578 140.29 47.9578C140.012 47.9578 139.741 47.9932 139.477 48.0639C139.217 48.1347 138.984 48.2502 138.776 48.4106C138.569 48.5663 138.404 48.7738 138.281 49.0332C138.163 49.2879 138.104 49.6016 138.104 49.9742V54H135.946V46.0899H137.581L137.899 47.4201H138.005C138.161 47.1512 138.354 46.9059 138.585 46.6842C138.821 46.4578 139.088 46.2786 139.385 46.1465C139.687 46.0097 140.012 45.9414 140.361 45.9414ZM145.859 52.4222C146.095 52.4222 146.323 52.3986 146.545 52.3515C146.771 52.3043 146.995 52.2454 147.217 52.1746V53.7807C146.986 53.8844 146.698 53.9693 146.354 54.0354C146.014 54.1061 145.642 54.1415 145.236 54.1415C144.764 54.1415 144.34 54.066 143.963 53.9151C143.59 53.7594 143.295 53.4929 143.078 53.1156C142.866 52.7335 142.76 52.2029 142.76 51.5237V47.7102H141.727V46.7975L142.915 46.0758L143.538 44.406H144.918V46.0899H147.132V47.7102H144.918V51.5237C144.918 51.8256 145.003 52.052 145.172 52.2029C145.347 52.3491 145.576 52.4222 145.859 52.4222Z" fill="#000000"/>
<path d="M22.8343 42.7197H28.3241V37.0759H22.8343V42.7197ZM25.5792 8.85698C22.6672 8.85698 19.8745 10.0462 17.8154 12.163C15.7563 14.2799 14.5995 17.1509 14.5995 20.1445H20.0894C20.0894 18.6477 20.6677 17.2122 21.6973 16.1538C22.7268 15.0954 24.1232 14.5008 25.5792 14.5008C27.0352 14.5008 28.4315 15.0954 29.4611 16.1538C30.4906 17.2122 31.069 18.6477 31.069 20.1445C31.069 25.7883 22.8343 25.0829 22.8343 34.254H28.3241C28.3241 27.9047 36.5588 27.1993 36.5588 20.1445C36.5588 17.1509 35.402 14.2799 33.3429 12.163C31.2839 10.0462 28.4911 8.85698 25.5792 8.85698ZM6.36482 0.391304H44.7935C46.2495 0.391304 47.6459 0.985915 48.6754 2.04433C49.7049 3.10274 50.2833 4.53826 50.2833 6.03509V45.5416C50.2833 47.0384 49.7049 48.4739 48.6754 49.5323C47.6459 50.5907 46.2495 51.1854 44.7935 51.1854H6.36482C4.90883 51.1854 3.51247 50.5907 2.48293 49.5323C1.45339 48.4739 0.875 47.0384 0.875 45.5416V6.03509C0.875 4.53826 1.45339 3.10274 2.48293 2.04433C3.51247 0.985915 4.90883 0.391304 6.36482 0.391304Z" fill="#000000"/>
<path d="M53.3083 61.0332H58.3499V55.8501H53.3083V61.0332ZM55.8291 29.9348C50.2833 29.9348 45.7458 34.5995 45.7458 40.3009H50.7874C50.7874 37.4502 53.0562 35.1178 55.8291 35.1178C58.602 35.1178 60.8708 37.4502 60.8708 40.3009C60.8708 45.484 53.3083 44.9657 53.3083 53.2586H58.3499C58.3499 47.5572 65.9124 46.7797 65.9124 40.3009C65.9124 34.5995 61.3749 29.9348 55.8291 29.9348ZM73.4749 27.3432V63.6247H38.1833V27.3432H73.4749ZM73.4749 22.1602H38.1833C35.4104 22.1602 33.1416 24.4926 33.1416 27.3432V63.6247C33.1416 66.4754 35.4104 68.8078 38.1833 68.8078H73.4749C76.2478 68.8078 78.5166 66.4754 78.5166 63.6247V27.3432C78.5166 24.4926 76.2478 22.1602 73.4749 22.1602Z" fill="#000000"/>
</svg>
