<svg width="68" height="57" viewBox="0 0 68 57" fill="none" xmlns="http://www.w3.org/2000/svg">
<path d="M63.8161 36.7131V31.8C63.8161 27.2145 59.3557 23.6117 54.8953 23.6117C50.4349 23.6117 45.9745 27.2145 45.9745 31.8V36.7131C44.0629 36.7131 42.1513 38.6783 42.1513 40.6435V52.1072C42.1513 54.3999 44.0629 56.3652 45.9745 56.3652H63.4975C65.7277 56.3652 67.6393 54.3999 67.6393 52.4347V40.971C67.6393 38.6783 65.7277 36.7131 63.8161 36.7131ZM59.6743 36.7131H50.1163V31.8C50.1163 29.1798 52.3465 27.5421 54.8953 27.5421C57.4441 27.5421 59.6743 29.1798 59.6743 31.8V36.7131ZM35.8749 53.0898H7.10539C5.41543 53.0898 3.79469 52.3996 2.59971 51.1711C1.40473 49.9427 0.733398 48.2765 0.733398 46.5391V7.23491C0.733398 5.49756 1.40473 3.83136 2.59971 2.60287C3.79469 1.37437 5.41543 0.684211 7.10539 0.684211H58.0813C61.6177 0.684211 64.4533 3.59927 64.4533 7.23491V20.4673C62.6054 19.0262 60.4708 17.9125 58.0813 17.4212V13.7856H7.10539V23.6117H42.2788C40.5583 25.9699 39.6025 28.7867 39.6025 31.8V32.5861C37.3723 34.5513 35.7793 37.4991 35.7793 40.6435V52.1072C35.7793 52.4347 35.7793 52.7623 35.8749 53.0898Z" fill="#F31D1D"/>
</svg>
