<svg width="20" height="20" viewBox="0 0 20 20" fill="none" xmlns="http://www.w3.org/2000/svg">
<path id="Vector" d="M20 5.53377C19.9963 5.10731 19.8769 4.69095 19.656 4.33424C19.4351 3.97754 19.122 3.69551 18.754 3.52173C18.386 3.34795 17.9785 3.28973 17.5801 3.354C17.1817 3.41827 16.8091 3.60233 16.5068 3.88426C16.2044 4.1662 15.9849 4.53414 15.8745 4.9443C15.7641 5.35445 15.7673 5.78955 15.8839 6.1978C16.0004 6.60606 16.2254 6.97028 16.5319 7.24712C16.8385 7.52395 17.2137 7.70175 17.613 7.75934C17.834 8.40474 17.9269 9.09138 17.886 9.77646C17.845 10.4615 17.6711 11.1303 17.3751 11.7411C17.0792 12.3519 16.6674 12.8916 16.1656 13.3266C15.6638 13.7615 15.0827 14.0824 14.4585 14.2691C14.1811 13.5937 13.7005 13.0342 13.0915 12.6779C13.963 11.5336 14.5109 10.1517 14.6718 8.69191C14.8327 7.23209 14.6 5.75389 14.0007 4.42807C13.4014 3.10225 12.4599 1.9829 11.2849 1.19935C10.1099 0.415794 8.74948 0 7.36068 0C5.97188 0 4.61141 0.415794 3.43645 1.19935C2.26148 1.9829 1.31996 3.10225 0.72064 4.42807C0.121325 5.75389 -0.111326 7.23209 0.0495638 8.69191C0.210453 10.1517 0.758318 11.5336 1.62987 12.6779C1.14722 12.9649 0.744454 13.3813 0.46205 13.8853C0.179646 14.3893 0.0275464 14.963 0.0210348 15.5489V16.6616C0.0210348 17.547 0.353391 18.3962 0.944988 19.0222C1.53659 19.6483 2.33896 20 3.17561 20H11.5878C12.4244 20 13.2268 19.6483 13.8184 19.0222C14.41 18.3962 14.7424 17.547 14.7424 16.6616V16.4502C15.6862 16.217 16.572 15.773 17.3406 15.148C18.1091 14.5231 18.7426 13.7315 19.1986 12.8265C19.6546 11.9214 19.9226 10.9236 19.9846 9.90007C20.0467 8.87649 19.9013 7.85069 19.5584 6.89137C19.8433 6.5029 19.9986 6.02551 20 5.53377ZM12.6393 16.6616C12.6393 16.9568 12.5285 17.2398 12.3313 17.4485C12.1341 17.6572 11.8667 17.7744 11.5878 17.7744H3.17561C2.89673 17.7744 2.62927 17.6572 2.43207 17.4485C2.23487 17.2398 2.12408 16.9568 2.12408 16.6616V15.5489C2.12408 15.2537 2.23487 14.9707 2.43207 14.762C2.62927 14.5533 2.89673 14.4361 3.17561 14.4361H3.60673C4.74558 15.1645 6.05098 15.5496 7.38171 15.5496C8.71243 15.5496 10.0178 15.1645 11.1567 14.4361H11.5878C11.8667 14.4361 12.1341 14.5533 12.3313 14.762C12.5285 14.9707 12.6393 15.2537 12.6393 15.5489V16.6616ZM7.38171 13.3233C6.34185 13.3233 5.32534 12.997 4.46073 12.3856C3.59612 11.7742 2.92223 10.9052 2.5243 9.88857C2.12636 8.87189 2.02224 7.75317 2.22511 6.67387C2.42797 5.59458 2.92871 4.60318 3.66401 3.82505C4.3993 3.04692 5.33612 2.517 6.356 2.30232C7.37587 2.08763 8.43301 2.19782 9.39371 2.61894C10.3544 3.04006 11.1755 3.7532 11.7533 4.66819C12.331 5.58317 12.6393 6.6589 12.6393 7.75934C12.6393 8.49001 12.5033 9.21352 12.2391 9.88857C11.9749 10.5636 11.5876 11.177 11.0994 11.6936C10.6112 12.2103 10.0316 12.6201 9.39371 12.8997C8.75583 13.1794 8.07215 13.3233 7.38171 13.3233ZM7.38171 6.64656C7.17373 6.64656 6.97043 6.71182 6.79751 6.83409C6.62459 6.95637 6.48981 7.13016 6.41022 7.3335C6.33064 7.53683 6.30981 7.76058 6.35039 7.97644C6.39096 8.1923 6.49111 8.39058 6.63817 8.5462C6.78522 8.70183 6.97259 8.80781 7.17656 8.85075C7.38054 8.89368 7.59197 8.87165 7.78411 8.78742C7.97625 8.7032 8.14047 8.56057 8.25602 8.37757C8.37156 8.19458 8.43323 7.97943 8.43323 7.75934C8.43323 7.46421 8.32245 7.18117 8.12525 6.97248C7.92805 6.7638 7.66059 6.64656 7.38171 6.64656Z" fill="#F31D1D"/>
</svg>
