<svg width="23" height="29" viewBox="0 0 23 29" fill="none" xmlns="http://www.w3.org/2000/svg">
<path d="M11.5 14.375C12.2906 14.375 12.9677 14.0932 13.5312 13.5297C14.0937 12.9672 14.375 12.2906 14.375 11.5C14.375 10.7094 14.0937 10.0323 13.5312 9.46881C12.9677 8.90627 12.2906 8.625 11.5 8.625C10.7094 8.625 10.0328 8.90627 9.47025 9.46881C8.90675 10.0323 8.625 10.7094 8.625 11.5C8.625 12.2906 8.90675 12.9672 9.47025 13.5297C10.0328 14.0932 10.7094 14.375 11.5 14.375ZM11.5 28.75C7.64271 25.4677 4.76196 22.4188 2.85775 19.6032C0.952583 16.7886 0 14.1833 0 11.7875C0 8.19375 1.15623 5.33073 3.46869 3.19844C5.78019 1.06615 8.45729 0 11.5 0C14.5427 0 17.2198 1.06615 19.5313 3.19844C21.8438 5.33073 23 8.19375 23 11.7875C23 14.1833 22.0479 16.7886 20.1437 19.6032C18.2385 22.4188 15.3573 25.4677 11.5 28.75Z" fill="#F31D1D"/>
</svg>
