<svg width="43" height="32" viewBox="0 0 43 32" fill="none" xmlns="http://www.w3.org/2000/svg">
<path d="M18 0C16.8917 0 16 0.891667 16 2C16 3.10833 16.8917 4 18 4H19.3333V6.775C9.96667 7.76667 2.66667 15.7 2.66667 25.3333H40C40 15.7 32.7 7.76667 23.3333 6.775V4H24.6667C25.775 4 26.6667 3.10833 26.6667 2C26.6667 0.891667 25.775 0 24.6667 0H18ZM2 28C0.891667 28 0 28.8917 0 30C0 31.1083 0.891667 32 2 32H40.6667C41.775 32 42.6667 31.1083 42.6667 30C42.6667 28.8917 41.775 28 40.6667 28H2Z" fill="#F31D1D"/>
</svg>
