<svg width="33" height="35" viewBox="0 0 33 35" fill="none" xmlns="http://www.w3.org/2000/svg">
<path d="M16.5 18.5714C18.1481 18.5714 19.7288 17.9167 20.8942 16.7513C22.0596 15.5859 22.7143 14.0053 22.7143 12.3571V8.21429C22.7143 6.56615 22.0596 4.98553 20.8942 3.82012C19.7288 2.65472 18.1481 2 16.5 2C14.8519 2 13.2712 2.65472 12.1058 3.82012C10.9404 4.98553 10.2857 6.56615 10.2857 8.21429V12.3571C10.2857 14.0053 10.9404 15.5859 12.1058 16.7513C13.2712 17.9167 14.8519 18.5714 16.5 18.5714ZM16.5 18.5714C23.3647 18.5714 31 22.8904 31 29.492V31C31 31.5494 30.7818 32.0763 30.3933 32.4647C30.0048 32.8532 29.4779 33.0714 28.9286 33.0714H4.07143C3.52205 33.0714 2.99518 32.8532 2.60671 32.4647C2.21824 32.0763 2 31.5494 2 31V29.492C2 22.8904 9.63529 18.5714 16.5 18.5714Z" stroke="black" stroke-opacity="0.66" stroke-width="2.07143" stroke-linecap="round" stroke-linejoin="round"/>
</svg>
