<svg width="25" height="32" viewBox="0 0 25 32" fill="none" xmlns="http://www.w3.org/2000/svg">
<path d="M23.4375 7.8125H18.75V6.25C18.75 4.5924 18.0915 3.00269 16.9194 1.83058C15.7473 0.65848 14.1576 0 12.5 0C10.8424 0 9.25268 0.65848 8.08058 1.83058C6.90848 3.00269 6.25 4.5924 6.25 6.25V7.8125H1.5625C1.1481 7.8125 0.750672 7.97712 0.457646 8.27015C0.16462 8.56317 0 8.9606 0 9.375V26.5625C0 27.8057 0.49386 28.998 1.37294 29.8771C2.25201 30.7561 3.4443 31.25 4.6875 31.25H20.3125C21.5557 31.25 22.748 30.7561 23.6271 29.8771C24.5061 28.998 25 27.8057 25 26.5625V9.375C25 8.9606 24.8354 8.56317 24.5424 8.27015C24.2493 7.97712 23.8519 7.8125 23.4375 7.8125ZM9.375 6.25C9.375 5.4212 9.70424 4.62634 10.2903 4.04029C10.8763 3.45424 11.6712 3.125 12.5 3.125C13.3288 3.125 14.1237 3.45424 14.7097 4.04029C15.2958 4.62634 15.625 5.4212 15.625 6.25V7.8125H9.375V6.25ZM21.875 26.5625C21.875 26.9769 21.7104 27.3743 21.4174 27.6674C21.1243 27.9604 20.7269 28.125 20.3125 28.125H4.6875C4.2731 28.125 3.87567 27.9604 3.58265 27.6674C3.28962 27.3743 3.125 26.9769 3.125 26.5625V10.9375H6.25V12.5C6.25 12.9144 6.41462 13.3118 6.70765 13.6049C7.00067 13.8979 7.3981 14.0625 7.8125 14.0625C8.2269 14.0625 8.62433 13.8979 8.91735 13.6049C9.21038 13.3118 9.375 12.9144 9.375 12.5V10.9375H15.625V12.5C15.625 12.9144 15.7896 13.3118 16.0826 13.6049C16.3757 13.8979 16.7731 14.0625 17.1875 14.0625C17.6019 14.0625 17.9993 13.8979 18.2924 13.6049C18.5854 13.3118 18.75 12.9144 18.75 12.5V10.9375H21.875V26.5625Z" fill="#F31D1D"/>
</svg>
